%TF.GenerationSoftware,KiCad,Pcbnew,10.0.4*%
%TF.CreationDate,2026-07-02T12:56:17+12:00*%
%TF.ProjectId,DESIGN,44455349-474e-42e6-9b69-6361645f7063,rev?*%
%TF.SameCoordinates,Original*%
%TF.FileFunction,Copper,L1,Top*%
%TF.FilePolarity,Positive*%
%FSLAX46Y46*%
G04 Gerber Fmt 4.6, Leading zero omitted, Abs format (unit mm)*
G04 Created by KiCad (PCBNEW 10.0.4) date 2026-07-02 12:56:17*
%MOMM*%
%LPD*%
G01*
G04 APERTURE LIST*
G04 Aperture macros list*
%AMRoundRect*
0 Rectangle with rounded corners*
0 $1 Rounding radius*
0 $2 $3 $4 $5 $6 $7 $8 $9 X,Y pos of 4 corners*
0 Add a 4 corners polygon primitive as box body*
4,1,4,$2,$3,$4,$5,$6,$7,$8,$9,$2,$3,0*
0 Add four circle primitives for the rounded corners*
1,1,$1+$1,$2,$3*
1,1,$1+$1,$4,$5*
1,1,$1+$1,$6,$7*
1,1,$1+$1,$8,$9*
0 Add four rect primitives between the rounded corners*
20,1,$1+$1,$2,$3,$4,$5,0*
20,1,$1+$1,$4,$5,$6,$7,0*
20,1,$1+$1,$6,$7,$8,$9,0*
20,1,$1+$1,$8,$9,$2,$3,0*%
%AMOutline5P*
0 Free polygon, 5 corners , with rotation*
0 The origin of the aperture is its center*
0 number of corners: always 5*
0 $1 to $10 corner X, Y*
0 $11 Rotation angle, in degrees counterclockwise*
0 create outline with 5 corners*
4,1,5,$1,$2,$3,$4,$5,$6,$7,$8,$9,$10,$1,$2,$11*%
%AMOutline6P*
0 Free polygon, 6 corners , with rotation*
0 The origin of the aperture is its center*
0 number of corners: always 6*
0 $1 to $12 corner X, Y*
0 $13 Rotation angle, in degrees counterclockwise*
0 create outline with 6 corners*
4,1,6,$1,$2,$3,$4,$5,$6,$7,$8,$9,$10,$11,$12,$1,$2,$13*%
%AMOutline7P*
0 Free polygon, 7 corners , with rotation*
0 The origin of the aperture is its center*
0 number of corners: always 7*
0 $1 to $14 corner X, Y*
0 $15 Rotation angle, in degrees counterclockwise*
0 create outline with 7 corners*
4,1,7,$1,$2,$3,$4,$5,$6,$7,$8,$9,$10,$11,$12,$13,$14,$1,$2,$15*%
%AMOutline8P*
0 Free polygon, 8 corners , with rotation*
0 The origin of the aperture is its center*
0 number of corners: always 8*
0 $1 to $16 corner X, Y*
0 $17 Rotation angle, in degrees counterclockwise*
0 create outline with 8 corners*
4,1,8,$1,$2,$3,$4,$5,$6,$7,$8,$9,$10,$11,$12,$13,$14,$15,$16,$1,$2,$17*%
G04 Aperture macros list end*
%TA.AperFunction,ComponentPad*%
%ADD10C,1.530000*%
%TD*%
%TA.AperFunction,ComponentPad*%
%ADD11R,1.530000X1.530000*%
%TD*%
%TA.AperFunction,ComponentPad*%
%ADD12C,1.700000*%
%TD*%
%TA.AperFunction,ComponentPad*%
%ADD13R,1.700000X1.700000*%
%TD*%
%TA.AperFunction,ComponentPad*%
%ADD14O,2.000000X1.905000*%
%TD*%
%TA.AperFunction,ComponentPad*%
%ADD15R,2.000000X1.905000*%
%TD*%
%TA.AperFunction,SMDPad,CuDef*%
%ADD16RoundRect,0.750000X-1.750000X-1.750000X1.750000X-1.750000X1.750000X1.750000X-1.750000X1.750000X0*%
%TD*%
%TA.AperFunction,SMDPad,CuDef*%
%ADD17Outline8P,-2.500000X1.500000X-1.500000X2.500000X1.500000X2.500000X2.500000X1.500000X2.500000X-1.500000X1.500000X-2.500000X-1.500000X-2.500000X-2.500000X-1.500000X0.000000*%
%TD*%
%TA.AperFunction,SMDPad,CuDef*%
%ADD18RoundRect,0.250000X0.350000X0.450000X-0.350000X0.450000X-0.350000X-0.450000X0.350000X-0.450000X0*%
%TD*%
%TA.AperFunction,SMDPad,CuDef*%
%ADD19RoundRect,0.250000X0.337500X0.475000X-0.337500X0.475000X-0.337500X-0.475000X0.337500X-0.475000X0*%
%TD*%
%TA.AperFunction,SMDPad,CuDef*%
%ADD20RoundRect,0.250000X-0.337500X-0.475000X0.337500X-0.475000X0.337500X0.475000X-0.337500X0.475000X0*%
%TD*%
%TA.AperFunction,ComponentPad*%
%ADD21RoundRect,0.250001X-1.149999X-1.149999X1.149999X-1.149999X1.149999X1.149999X-1.149999X1.149999X0*%
%TD*%
%TA.AperFunction,ComponentPad*%
%ADD22C,2.800000*%
%TD*%
%TA.AperFunction,SMDPad,CuDef*%
%ADD23RoundRect,0.250000X-0.350000X-0.450000X0.350000X-0.450000X0.350000X0.450000X-0.350000X0.450000X0*%
%TD*%
%TA.AperFunction,ComponentPad*%
%ADD24RoundRect,0.250000X0.750000X0.750000X-0.750000X0.750000X-0.750000X-0.750000X0.750000X-0.750000X0*%
%TD*%
%TA.AperFunction,ComponentPad*%
%ADD25C,2.000000*%
%TD*%
%TA.AperFunction,SMDPad,CuDef*%
%ADD26R,1.500000X0.650000*%
%TD*%
%TA.AperFunction,Conductor*%
%ADD27C,1.250000*%
%TD*%
%TA.AperFunction,Conductor*%
%ADD28C,0.800000*%
%TD*%
%TA.AperFunction,Conductor*%
%ADD29C,0.200000*%
%TD*%
G04 APERTURE END LIST*
D10*
%TO.P,U1,38,GND3_38*%
%TO.N,GND*%
X72472500Y-52280000D03*
%TO.P,U1,37,IO23_37*%
%TO.N,Net-(J3-Pin_2)*%
X72472500Y-54820000D03*
%TO.P,U1,36,IO22_36*%
%TO.N,Net-(J3-Pin_3)*%
X72472500Y-57360000D03*
%TO.P,U1,35,TXD0_35*%
%TO.N,Net-(J3-Pin_4)*%
X72472500Y-59900000D03*
%TO.P,U1,34,RXD0_34*%
%TO.N,Net-(J3-Pin_5)*%
X72472500Y-62440000D03*
%TO.P,U1,33,IO21_33*%
%TO.N,Net-(J3-Pin_6)*%
X72472500Y-64980000D03*
%TO.P,U1,32,GND2_32*%
%TO.N,GND*%
X72472500Y-67520000D03*
%TO.P,U1,31,IO19_31*%
%TO.N,Net-(J3-Pin_8)*%
X72472500Y-70060000D03*
%TO.P,U1,30,IO18_30*%
%TO.N,Net-(J3-Pin_9)*%
X72472500Y-72600000D03*
%TO.P,U1,29,IO5_29*%
%TO.N,Net-(J3-Pin_10)*%
X72472500Y-75140000D03*
%TO.P,U1,28,IO17_28*%
%TO.N,Net-(J3-Pin_11)*%
X72472500Y-77680000D03*
%TO.P,U1,27,IO16_27*%
%TO.N,Net-(J3-Pin_12)*%
X72472500Y-80220000D03*
%TO.P,U1,26,IO4_26*%
%TO.N,Net-(J3-Pin_13)*%
X72472500Y-82760000D03*
%TO.P,U1,25,IO0_25*%
%TO.N,Net-(J3-Pin_14)*%
X72472500Y-85300000D03*
%TO.P,U1,24,IO2_24*%
%TO.N,Net-(J3-Pin_15)*%
X72472500Y-87840000D03*
%TO.P,U1,23,IO15_23*%
%TO.N,Net-(J3-Pin_16)*%
X72472500Y-90380000D03*
%TO.P,U1,22,SD1_22*%
%TO.N,Net-(J3-Pin_17)*%
X72472500Y-92920000D03*
%TO.P,U1,21,SD0_21*%
%TO.N,Net-(J3-Pin_18)*%
X72472500Y-95460000D03*
%TO.P,U1,20,CLK_20*%
%TO.N,Net-(J3-Pin_19)*%
X72472500Y-98000000D03*
%TO.P,U1,19,EXT_5V_19*%
%TO.N,Net-(J1-Pin_2)*%
X47072500Y-98000000D03*
%TO.P,U1,18,CMD_18*%
%TO.N,Net-(J2-Pin_18)*%
X47072500Y-95460000D03*
%TO.P,U1,17,SD3_17*%
%TO.N,Net-(J2-Pin_17)*%
X47072500Y-92920000D03*
%TO.P,U1,16,SD2_16*%
%TO.N,Net-(J2-Pin_16)*%
X47072500Y-90380000D03*
%TO.P,U1,15,IO13_15*%
%TO.N,Net-(J2-Pin_15)*%
X47072500Y-87840000D03*
%TO.P,U1,14,GND1_14*%
%TO.N,GND*%
X47072500Y-85300000D03*
%TO.P,U1,13,IO12_13*%
%TO.N,Net-(J2-Pin_13)*%
X47072500Y-82760000D03*
%TO.P,U1,12,IO14_12*%
%TO.N,Net-(J2-Pin_12)*%
X47072500Y-80220000D03*
%TO.P,U1,11,IO27_11*%
%TO.N,Net-(J2-Pin_11)*%
X47072500Y-77680000D03*
%TO.P,U1,10,IO26_10*%
%TO.N,Net-(J2-Pin_10)*%
X47072500Y-75140000D03*
%TO.P,U1,9,IO25_9*%
%TO.N,Net-(J2-Pin_9)*%
X47072500Y-72600000D03*
%TO.P,U1,8,IO33_8*%
%TO.N,Net-(J2-Pin_8)*%
X47072500Y-70060000D03*
%TO.P,U1,7,IO32_7*%
%TO.N,Net-(J2-Pin_7)*%
X47072500Y-67520000D03*
%TO.P,U1,6,IO35_6*%
%TO.N,Net-(J2-Pin_6)*%
X47072500Y-64980000D03*
%TO.P,U1,5,IO34_5*%
%TO.N,Net-(J2-Pin_5)*%
X47072500Y-62440000D03*
%TO.P,U1,4,SENSOR_VN_4*%
%TO.N,Net-(J2-Pin_4)*%
X47072500Y-59900000D03*
%TO.P,U1,3,SENSOR_VP_3*%
%TO.N,Net-(J2-Pin_3)*%
X47072500Y-57360000D03*
%TO.P,U1,2,EN_2*%
%TO.N,Net-(J2-Pin_2)*%
X47072500Y-54820000D03*
D11*
%TO.P,U1,1,3V3_1*%
%TO.N,Net-(J2-Pin_1)*%
X47072500Y-52280000D03*
%TD*%
D12*
%TO.P,J3,19,Pin_19_19*%
%TO.N,Net-(J3-Pin_19)*%
X76500000Y-93700000D03*
%TO.P,J3,18,Pin_18_18*%
%TO.N,Net-(J3-Pin_18)*%
X76500000Y-91160000D03*
%TO.P,J3,17,Pin_17_17*%
%TO.N,Net-(J3-Pin_17)*%
X76500000Y-88620000D03*
%TO.P,J3,16,Pin_16_16*%
%TO.N,Net-(J3-Pin_16)*%
X76500000Y-86080000D03*
%TO.P,J3,15,Pin_15_15*%
%TO.N,Net-(J3-Pin_15)*%
X76500000Y-83540000D03*
%TO.P,J3,14,Pin_14_14*%
%TO.N,Net-(J3-Pin_14)*%
X76500000Y-81000000D03*
%TO.P,J3,13,Pin_13_13*%
%TO.N,Net-(J3-Pin_13)*%
X76500000Y-78460000D03*
%TO.P,J3,12,Pin_12_12*%
%TO.N,Net-(J3-Pin_12)*%
X76500000Y-75920000D03*
%TO.P,J3,11,Pin_11_11*%
%TO.N,Net-(J3-Pin_11)*%
X76500000Y-73380000D03*
%TO.P,J3,10,Pin_10_10*%
%TO.N,Net-(J3-Pin_10)*%
X76500000Y-70840000D03*
%TO.P,J3,9,Pin_9_9*%
%TO.N,Net-(J3-Pin_9)*%
X76500000Y-68300000D03*
%TO.P,J3,8,Pin_8_8*%
%TO.N,Net-(J3-Pin_8)*%
X76500000Y-65760000D03*
%TO.P,J3,7,Pin_7_7*%
%TO.N,GND*%
X76500000Y-63220000D03*
%TO.P,J3,6,Pin_6_6*%
%TO.N,Net-(J3-Pin_6)*%
X76500000Y-60680000D03*
%TO.P,J3,5,Pin_5_5*%
%TO.N,Net-(J3-Pin_5)*%
X76500000Y-58140000D03*
%TO.P,J3,4,Pin_4_4*%
%TO.N,Net-(J3-Pin_4)*%
X76500000Y-55600000D03*
%TO.P,J3,3,Pin_3_3*%
%TO.N,Net-(J3-Pin_3)*%
X76500000Y-53060000D03*
%TO.P,J3,2,Pin_2_2*%
%TO.N,Net-(J3-Pin_2)*%
X76500000Y-50520000D03*
D13*
%TO.P,J3,1,Pin_1_1*%
%TO.N,GND*%
X76500000Y-47980000D03*
%TD*%
%TO.P,J2,1,Pin_1_1*%
%TO.N,Net-(J2-Pin_1)*%
X43000000Y-48005000D03*
D12*
%TO.P,J2,2,Pin_2_2*%
%TO.N,Net-(J2-Pin_2)*%
X43000000Y-50545000D03*
%TO.P,J2,3,Pin_3_3*%
%TO.N,Net-(J2-Pin_3)*%
X43000000Y-53085000D03*
%TO.P,J2,4,Pin_4_4*%
%TO.N,Net-(J2-Pin_4)*%
X43000000Y-55625000D03*
%TO.P,J2,5,Pin_5_5*%
%TO.N,Net-(J2-Pin_5)*%
X43000000Y-58165000D03*
%TO.P,J2,6,Pin_6_6*%
%TO.N,Net-(J2-Pin_6)*%
X43000000Y-60705000D03*
%TO.P,J2,7,Pin_7_7*%
%TO.N,Net-(J2-Pin_7)*%
X43000000Y-63245000D03*
%TO.P,J2,8,Pin_8_8*%
%TO.N,Net-(J2-Pin_8)*%
X43000000Y-65785000D03*
%TO.P,J2,9,Pin_9_9*%
%TO.N,Net-(J2-Pin_9)*%
X43000000Y-68325000D03*
%TO.P,J2,10,Pin_10_10*%
%TO.N,Net-(J2-Pin_10)*%
X43000000Y-70865000D03*
%TO.P,J2,11,Pin_11_11*%
%TO.N,Net-(J2-Pin_11)*%
X43000000Y-73405000D03*
%TO.P,J2,12,Pin_12_12*%
%TO.N,Net-(J2-Pin_12)*%
X43000000Y-75945000D03*
%TO.P,J2,13,Pin_13_13*%
%TO.N,Net-(J2-Pin_13)*%
X43000000Y-78485000D03*
%TO.P,J2,14,Pin_14_14*%
%TO.N,GND*%
X43000000Y-81025000D03*
%TO.P,J2,15,Pin_15_15*%
%TO.N,Net-(J2-Pin_15)*%
X43000000Y-83565000D03*
%TO.P,J2,16,Pin_16_16*%
%TO.N,Net-(J2-Pin_16)*%
X43000000Y-86105000D03*
%TO.P,J2,17,Pin_17_17*%
%TO.N,Net-(J2-Pin_17)*%
X43000000Y-88645000D03*
%TO.P,J2,18,Pin_18_18*%
%TO.N,Net-(J2-Pin_18)*%
X43000000Y-91185000D03*
%TO.P,J2,19,Pin_19_19*%
%TO.N,Net-(J1-Pin_2)*%
X43000000Y-93725000D03*
%TD*%
D14*
%TO.P,UVD1,3,VI_3*%
%TO.N,+5V*%
X106500000Y-52420000D03*
%TO.P,UVD1,2,VO_2*%
%TO.N,+3.3V*%
X106500000Y-54960000D03*
D15*
%TO.P,UVD1,1,GND_1*%
%TO.N,GND*%
X106500000Y-57500000D03*
%TD*%
D12*
%TO.P,J1,2,Pin_2_2*%
%TO.N,Net-(J1-Pin_2)*%
X76500000Y-98000000D03*
D13*
%TO.P,J1,1,Pin_1_1*%
%TO.N,+5V*%
X79040000Y-98000000D03*
%TD*%
D16*
%TO.P,J4,2,Pin_2_2*%
%TO.N,+5V*%
X109500000Y-40500000D03*
D17*
%TO.P,J4,1,Pin_1_1*%
%TO.N,GND*%
X109500000Y-31000000D03*
%TD*%
D18*
%TO.P,R1,1*%
%TO.N,Net-(C4-Pad2)*%
X90100000Y-84400000D03*
%TO.P,R1,2*%
%TO.N,Net-(IC1-INL)*%
X88100000Y-84400000D03*
%TD*%
D19*
%TO.P,C3,1*%
%TO.N,+5V*%
X106175000Y-80900000D03*
%TO.P,C3,2*%
%TO.N,GND*%
X104100000Y-80900000D03*
%TD*%
%TO.P,C4,1*%
%TO.N,/LIN*%
X90137500Y-69400000D03*
%TO.P,C4,2*%
%TO.N,Net-(C4-Pad2)*%
X88062500Y-69400000D03*
%TD*%
D20*
%TO.P,C6,1*%
%TO.N,GND*%
X104100000Y-77375000D03*
%TO.P,C6,2*%
%TO.N,+5V*%
X106175000Y-77375000D03*
%TD*%
D18*
%TO.P,R2,1*%
%TO.N,Net-(IC1-INR)*%
X90100000Y-80350000D03*
%TO.P,R2,2*%
%TO.N,Net-(C5-Pad1)*%
X88100000Y-80350000D03*
%TD*%
D21*
%TO.P,RIGHT1,1,Pin_1_1*%
%TO.N,Net-(IC1-+OUT_R)*%
X85750000Y-95500000D03*
D22*
%TO.P,RIGHT1,2,Pin_2_2*%
%TO.N,Net-(IC1--OUT_R)*%
X90750000Y-95500000D03*
%TD*%
D18*
%TO.P,R4,1*%
%TO.N,+3V3*%
X90100000Y-72900000D03*
%TO.P,R4,2*%
%TO.N,Net-(IC1-SHND)*%
X88100000Y-72900000D03*
%TD*%
D19*
%TO.P,C1,1*%
%TO.N,+5V*%
X106175000Y-84400000D03*
%TO.P,C1,2*%
%TO.N,GND*%
X104100000Y-84400000D03*
%TD*%
D23*
%TO.P,R3,1*%
%TO.N,Net-(IC1-MUTE)*%
X88100000Y-76400000D03*
%TO.P,R3,2*%
%TO.N,+3V3*%
X90100000Y-76400000D03*
%TD*%
D24*
%TO.P,C2,1*%
%TO.N,+5V*%
X100067677Y-68500000D03*
D25*
%TO.P,C2,2*%
%TO.N,GND*%
X95067677Y-68500000D03*
%TD*%
D26*
%TO.P,IC1,1,+OUT_L_1*%
%TO.N,Net-(IC1-+OUT_L)*%
X99500000Y-83900000D03*
%TO.P,IC1,2,PGND_1_2*%
%TO.N,GND*%
X99500000Y-82630000D03*
%TO.P,IC1,3,-OUT_L_3*%
%TO.N,Net-(IC1--OUT_L)*%
X99500000Y-81360000D03*
%TO.P,IC1,4,PVDD_1_4*%
%TO.N,+5V*%
X99500000Y-80090000D03*
%TO.P,IC1,5,MUTE_5*%
%TO.N,Net-(IC1-MUTE)*%
X99500000Y-78820000D03*
%TO.P,IC1,6,VDD_6*%
%TO.N,+5V*%
X99500000Y-77550000D03*
%TO.P,IC1,7,INL_7*%
%TO.N,Net-(IC1-INL)*%
X99500000Y-76280000D03*
%TO.P,IC1,8,VREF_8*%
%TO.N,Net-(IC1-VREF)*%
X99500000Y-75010000D03*
%TO.P,IC1,9,NC_9*%
%TO.N,unconnected-(IC1-NC-Pad9)*%
X94100000Y-75010000D03*
%TO.P,IC1,10,INR_10*%
%TO.N,Net-(IC1-INR)*%
X94100000Y-76280000D03*
%TO.P,IC1,11,GND_11*%
%TO.N,GND*%
X94100000Y-77550000D03*
%TO.P,IC1,12,SHND_12*%
%TO.N,Net-(IC1-SHND)*%
X94100000Y-78820000D03*
%TO.P,IC1,13,PVDD_2_13*%
%TO.N,+5V*%
X94100000Y-80090000D03*
%TO.P,IC1,14,-OUT_R_14*%
%TO.N,Net-(IC1--OUT_R)*%
X94100000Y-81360000D03*
%TO.P,IC1,15,PGND_2_15*%
%TO.N,GND*%
X94100000Y-82630000D03*
%TO.P,IC1,16,+OUT_R_16*%
%TO.N,Net-(IC1-+OUT_R)*%
X94100000Y-83900000D03*
%TD*%
D19*
%TO.P,C7,1*%
%TO.N,GND*%
X106175000Y-73900000D03*
%TO.P,C7,2*%
%TO.N,Net-(IC1-VREF)*%
X104100000Y-73900000D03*
%TD*%
D21*
%TO.P,LEFT1,1,Pin_1_1*%
%TO.N,Net-(IC1--OUT_L)*%
X100700000Y-95500000D03*
D22*
%TO.P,LEFT1,2,Pin_2_2*%
%TO.N,Net-(IC1-+OUT_L)*%
X105700000Y-95500000D03*
%TD*%
D12*
%TO.P,U3,1,SCK_1*%
%TO.N,GND*%
X97620000Y-34340000D03*
%TO.P,U3,2,BCK_2*%
%TO.N,Net-(J3-Pin_13)*%
X95080000Y-34340000D03*
%TO.P,U3,3,DIN_3*%
%TO.N,Net-(J3-Pin_17)*%
X92540000Y-34340000D03*
%TO.P,U3,4,LRCK_4*%
%TO.N,Net-(J3-Pin_14)*%
X90000000Y-34340000D03*
%TO.P,U3,5,GND_5*%
%TO.N,GND*%
X87460000Y-34340000D03*
D13*
%TO.P,U3,6,VIN_6*%
%TO.N,+5V*%
X84920000Y-34340000D03*
%TO.P,U3,7,FLT_7*%
%TO.N,unconnected-(U3-FLT-Pad7)*%
X98080000Y-40340000D03*
D12*
%TO.P,U3,8,DEMP_8*%
%TO.N,unconnected-(U3-DEMP-Pad8)*%
X98080000Y-42880000D03*
%TO.P,U3,9,XSMT_9*%
%TO.N,unconnected-(U3-XSMT-Pad9)*%
X98080000Y-45420000D03*
%TO.P,U3,10,FMT_10*%
%TO.N,unconnected-(U3-FMT-Pad10)*%
X98080000Y-47960000D03*
%TO.P,U3,11,A3V3_11*%
%TO.N,unconnected-(U3-A3V3-Pad11)*%
X98080000Y-50500000D03*
%TO.P,U3,12,AGND_12*%
%TO.N,GND*%
X98080000Y-53040000D03*
%TO.P,U3,13,Rout_13*%
%TO.N,/RIN*%
X98080000Y-55580000D03*
%TO.P,U3,14,AGND_14*%
%TO.N,GND*%
X98080000Y-58120000D03*
%TO.P,U3,15,LROUT_15*%
%TO.N,/LIN*%
X98080000Y-60660000D03*
%TD*%
%TO.N,+5V*%
D27*
X106175000Y-77375000D02*
X111625000Y-77375000D01*
X112500000Y-76500000D02*
X112500000Y-79500000D01*
X111625000Y-77375000D02*
X112500000Y-76500000D01*
X112500000Y-79900000D02*
X111500000Y-80900000D01*
X111500000Y-80900000D02*
X111975000Y-80900000D01*
X112500000Y-79500000D02*
X112500000Y-79900000D01*
X112500000Y-79500000D02*
X112500000Y-83400000D01*
X112500000Y-83400000D02*
X111500000Y-84400000D01*
X112500000Y-43500000D02*
X112500000Y-76500000D01*
X111500000Y-84400000D02*
X106175000Y-84400000D01*
X109500000Y-40500000D02*
X112500000Y-43500000D01*
X106175000Y-80900000D02*
X111500000Y-80900000D01*
%TO.N,Net-(IC1--OUT_L)*%
D28*
X100700000Y-95500000D02*
X100700000Y-94000000D01*
%TO.N,Net-(IC1-+OUT_R)*%
X88200000Y-95500000D02*
X85750000Y-95500000D01*
%TO.N,Net-(IC1-+OUT_L)*%
X99500000Y-89300000D02*
X99500000Y-83900000D01*
X105700000Y-95500000D02*
X99500000Y-89300000D01*
%TO.N,Net-(IC1--OUT_L)*%
X98340000Y-81360000D02*
X99500000Y-81360000D01*
X98100000Y-81600000D02*
X98340000Y-81360000D01*
X100700000Y-94000000D02*
X98100000Y-91400000D01*
X98100000Y-91400000D02*
X98100000Y-81600000D01*
%TO.N,Net-(IC1--OUT_R)*%
X95700000Y-82000000D02*
X95060000Y-81360000D01*
X95060000Y-81360000D02*
X94100000Y-81360000D01*
X95700000Y-91000000D02*
X95700000Y-82000000D01*
X91200000Y-95500000D02*
X95700000Y-91000000D01*
%TO.N,Net-(IC1-+OUT_R)*%
X94100000Y-89600000D02*
X94100000Y-83900000D01*
X88200000Y-95500000D02*
X94100000Y-89600000D01*
%TO.N,*%
D29*
X76500000Y-69720000D02*
X76500000Y-63000000D01*
%TO.N,Net-(J3-Pin_17)*%
X93500000Y-34380000D02*
X93460000Y-34340000D01*
%TD*%
M02*
