%TF.GenerationSoftware,KiCad,Pcbnew,10.0.4*%
%TF.CreationDate,2026-07-02T12:56:17+12:00*%
%TF.ProjectId,DESIGN,44455349-474e-42e6-9b69-6361645f7063,rev?*%
%TF.SameCoordinates,Original*%
%TF.FileFunction,Legend,Top*%
%TF.FilePolarity,Positive*%
%FSLAX46Y46*%
G04 Gerber Fmt 4.6, Leading zero omitted, Abs format (unit mm)*
G04 Created by KiCad (PCBNEW 10.0.4) date 2026-07-02 12:56:17*
%MOMM*%
%LPD*%
G01*
G04 APERTURE LIST*
%ADD10C,0.150000*%
%ADD11C,0.100000*%
%ADD12C,0.500000*%
%ADD13C,0.254000*%
%ADD14C,0.200000*%
%ADD15C,0.127000*%
%ADD16C,0.120000*%
G04 APERTURE END LIST*
D10*
X48215595Y-42834819D02*
X48215595Y-43644342D01*
X48215595Y-43644342D02*
X48263214Y-43739580D01*
X48263214Y-43739580D02*
X48310833Y-43787200D01*
X48310833Y-43787200D02*
X48406071Y-43834819D01*
X48406071Y-43834819D02*
X48596547Y-43834819D01*
X48596547Y-43834819D02*
X48691785Y-43787200D01*
X48691785Y-43787200D02*
X48739404Y-43739580D01*
X48739404Y-43739580D02*
X48787023Y-43644342D01*
X48787023Y-43644342D02*
X48787023Y-42834819D01*
X49787023Y-43834819D02*
X49215595Y-43834819D01*
X49501309Y-43834819D02*
X49501309Y-42834819D01*
X49501309Y-42834819D02*
X49406071Y-42977676D01*
X49406071Y-42977676D02*
X49310833Y-43072914D01*
X49310833Y-43072914D02*
X49215595Y-43120533D01*
X76166666Y-45054819D02*
X76166666Y-45769104D01*
X76166666Y-45769104D02*
X76119047Y-45911961D01*
X76119047Y-45911961D02*
X76023809Y-46007200D01*
X76023809Y-46007200D02*
X75880952Y-46054819D01*
X75880952Y-46054819D02*
X75785714Y-46054819D01*
X76547619Y-45054819D02*
X77166666Y-45054819D01*
X77166666Y-45054819D02*
X76833333Y-45435771D01*
X76833333Y-45435771D02*
X76976190Y-45435771D01*
X76976190Y-45435771D02*
X77071428Y-45483390D01*
X77071428Y-45483390D02*
X77119047Y-45531009D01*
X77119047Y-45531009D02*
X77166666Y-45626247D01*
X77166666Y-45626247D02*
X77166666Y-45864342D01*
X77166666Y-45864342D02*
X77119047Y-45959580D01*
X77119047Y-45959580D02*
X77071428Y-46007200D01*
X77071428Y-46007200D02*
X76976190Y-46054819D01*
X76976190Y-46054819D02*
X76690476Y-46054819D01*
X76690476Y-46054819D02*
X76595238Y-46007200D01*
X76595238Y-46007200D02*
X76547619Y-45959580D01*
X42666666Y-45079819D02*
X42666666Y-45794104D01*
X42666666Y-45794104D02*
X42619047Y-45936961D01*
X42619047Y-45936961D02*
X42523809Y-46032200D01*
X42523809Y-46032200D02*
X42380952Y-46079819D01*
X42380952Y-46079819D02*
X42285714Y-46079819D01*
X43095238Y-45175057D02*
X43142857Y-45127438D01*
X43142857Y-45127438D02*
X43238095Y-45079819D01*
X43238095Y-45079819D02*
X43476190Y-45079819D01*
X43476190Y-45079819D02*
X43571428Y-45127438D01*
X43571428Y-45127438D02*
X43619047Y-45175057D01*
X43619047Y-45175057D02*
X43666666Y-45270295D01*
X43666666Y-45270295D02*
X43666666Y-45365533D01*
X43666666Y-45365533D02*
X43619047Y-45508390D01*
X43619047Y-45508390D02*
X43047619Y-46079819D01*
X43047619Y-46079819D02*
X43666666Y-46079819D01*
X101854819Y-56650475D02*
X102664342Y-56650475D01*
X102664342Y-56650475D02*
X102759580Y-56602856D01*
X102759580Y-56602856D02*
X102807200Y-56555237D01*
X102807200Y-56555237D02*
X102854819Y-56459999D01*
X102854819Y-56459999D02*
X102854819Y-56269523D01*
X102854819Y-56269523D02*
X102807200Y-56174285D01*
X102807200Y-56174285D02*
X102759580Y-56126666D01*
X102759580Y-56126666D02*
X102664342Y-56079047D01*
X102664342Y-56079047D02*
X101854819Y-56079047D01*
X101854819Y-55745713D02*
X102854819Y-55412380D01*
X102854819Y-55412380D02*
X101854819Y-55079047D01*
X102854819Y-54745713D02*
X101854819Y-54745713D01*
X101854819Y-54745713D02*
X101854819Y-54507618D01*
X101854819Y-54507618D02*
X101902438Y-54364761D01*
X101902438Y-54364761D02*
X101997676Y-54269523D01*
X101997676Y-54269523D02*
X102092914Y-54221904D01*
X102092914Y-54221904D02*
X102283390Y-54174285D01*
X102283390Y-54174285D02*
X102426247Y-54174285D01*
X102426247Y-54174285D02*
X102616723Y-54221904D01*
X102616723Y-54221904D02*
X102711961Y-54269523D01*
X102711961Y-54269523D02*
X102807200Y-54364761D01*
X102807200Y-54364761D02*
X102854819Y-54507618D01*
X102854819Y-54507618D02*
X102854819Y-54745713D01*
X102854819Y-53221904D02*
X102854819Y-53793332D01*
X102854819Y-53507618D02*
X101854819Y-53507618D01*
X101854819Y-53507618D02*
X101997676Y-53602856D01*
X101997676Y-53602856D02*
X102092914Y-53698094D01*
X102092914Y-53698094D02*
X102140533Y-53793332D01*
X80874819Y-98333333D02*
X81589104Y-98333333D01*
X81589104Y-98333333D02*
X81731961Y-98380952D01*
X81731961Y-98380952D02*
X81827200Y-98476190D01*
X81827200Y-98476190D02*
X81874819Y-98619047D01*
X81874819Y-98619047D02*
X81874819Y-98714285D01*
X81874819Y-97333333D02*
X81874819Y-97904761D01*
X81874819Y-97619047D02*
X80874819Y-97619047D01*
X80874819Y-97619047D02*
X81017676Y-97714285D01*
X81017676Y-97714285D02*
X81112914Y-97809523D01*
X81112914Y-97809523D02*
X81160533Y-97904761D01*
D11*
X109166666Y-43957419D02*
X109166666Y-44671704D01*
X109166666Y-44671704D02*
X109119047Y-44814561D01*
X109119047Y-44814561D02*
X109023809Y-44909800D01*
X109023809Y-44909800D02*
X108880952Y-44957419D01*
X108880952Y-44957419D02*
X108785714Y-44957419D01*
X110071428Y-44290752D02*
X110071428Y-44957419D01*
X109833333Y-43909800D02*
X109595238Y-44624085D01*
X109595238Y-44624085D02*
X110214285Y-44624085D01*
D12*
X113043232Y-40464000D02*
X115328947Y-40464000D01*
X114186089Y-41606857D02*
X114186089Y-39321142D01*
X113043232Y-30964000D02*
X115328947Y-30964000D01*
D10*
X87933333Y-86504819D02*
X87600000Y-86028628D01*
X87361905Y-86504819D02*
X87361905Y-85504819D01*
X87361905Y-85504819D02*
X87742857Y-85504819D01*
X87742857Y-85504819D02*
X87838095Y-85552438D01*
X87838095Y-85552438D02*
X87885714Y-85600057D01*
X87885714Y-85600057D02*
X87933333Y-85695295D01*
X87933333Y-85695295D02*
X87933333Y-85838152D01*
X87933333Y-85838152D02*
X87885714Y-85933390D01*
X87885714Y-85933390D02*
X87838095Y-85981009D01*
X87838095Y-85981009D02*
X87742857Y-86028628D01*
X87742857Y-86028628D02*
X87361905Y-86028628D01*
X88885714Y-86504819D02*
X88314286Y-86504819D01*
X88600000Y-86504819D02*
X88600000Y-85504819D01*
X88600000Y-85504819D02*
X88504762Y-85647676D01*
X88504762Y-85647676D02*
X88409524Y-85742914D01*
X88409524Y-85742914D02*
X88314286Y-85790533D01*
X104970833Y-82759580D02*
X104923214Y-82807200D01*
X104923214Y-82807200D02*
X104780357Y-82854819D01*
X104780357Y-82854819D02*
X104685119Y-82854819D01*
X104685119Y-82854819D02*
X104542262Y-82807200D01*
X104542262Y-82807200D02*
X104447024Y-82711961D01*
X104447024Y-82711961D02*
X104399405Y-82616723D01*
X104399405Y-82616723D02*
X104351786Y-82426247D01*
X104351786Y-82426247D02*
X104351786Y-82283390D01*
X104351786Y-82283390D02*
X104399405Y-82092914D01*
X104399405Y-82092914D02*
X104447024Y-81997676D01*
X104447024Y-81997676D02*
X104542262Y-81902438D01*
X104542262Y-81902438D02*
X104685119Y-81854819D01*
X104685119Y-81854819D02*
X104780357Y-81854819D01*
X104780357Y-81854819D02*
X104923214Y-81902438D01*
X104923214Y-81902438D02*
X104970833Y-81950057D01*
X105304167Y-81854819D02*
X105923214Y-81854819D01*
X105923214Y-81854819D02*
X105589881Y-82235771D01*
X105589881Y-82235771D02*
X105732738Y-82235771D01*
X105732738Y-82235771D02*
X105827976Y-82283390D01*
X105827976Y-82283390D02*
X105875595Y-82331009D01*
X105875595Y-82331009D02*
X105923214Y-82426247D01*
X105923214Y-82426247D02*
X105923214Y-82664342D01*
X105923214Y-82664342D02*
X105875595Y-82759580D01*
X105875595Y-82759580D02*
X105827976Y-82807200D01*
X105827976Y-82807200D02*
X105732738Y-82854819D01*
X105732738Y-82854819D02*
X105447024Y-82854819D01*
X105447024Y-82854819D02*
X105351786Y-82807200D01*
X105351786Y-82807200D02*
X105304167Y-82759580D01*
X85901010Y-69759580D02*
X85853391Y-69807200D01*
X85853391Y-69807200D02*
X85710534Y-69854819D01*
X85710534Y-69854819D02*
X85615296Y-69854819D01*
X85615296Y-69854819D02*
X85472439Y-69807200D01*
X85472439Y-69807200D02*
X85377201Y-69711961D01*
X85377201Y-69711961D02*
X85329582Y-69616723D01*
X85329582Y-69616723D02*
X85281963Y-69426247D01*
X85281963Y-69426247D02*
X85281963Y-69283390D01*
X85281963Y-69283390D02*
X85329582Y-69092914D01*
X85329582Y-69092914D02*
X85377201Y-68997676D01*
X85377201Y-68997676D02*
X85472439Y-68902438D01*
X85472439Y-68902438D02*
X85615296Y-68854819D01*
X85615296Y-68854819D02*
X85710534Y-68854819D01*
X85710534Y-68854819D02*
X85853391Y-68902438D01*
X85853391Y-68902438D02*
X85901010Y-68950057D01*
X86758153Y-69188152D02*
X86758153Y-69854819D01*
X86520058Y-68807200D02*
X86281963Y-69521485D01*
X86281963Y-69521485D02*
X86901010Y-69521485D01*
X104970833Y-79259580D02*
X104923214Y-79307200D01*
X104923214Y-79307200D02*
X104780357Y-79354819D01*
X104780357Y-79354819D02*
X104685119Y-79354819D01*
X104685119Y-79354819D02*
X104542262Y-79307200D01*
X104542262Y-79307200D02*
X104447024Y-79211961D01*
X104447024Y-79211961D02*
X104399405Y-79116723D01*
X104399405Y-79116723D02*
X104351786Y-78926247D01*
X104351786Y-78926247D02*
X104351786Y-78783390D01*
X104351786Y-78783390D02*
X104399405Y-78592914D01*
X104399405Y-78592914D02*
X104447024Y-78497676D01*
X104447024Y-78497676D02*
X104542262Y-78402438D01*
X104542262Y-78402438D02*
X104685119Y-78354819D01*
X104685119Y-78354819D02*
X104780357Y-78354819D01*
X104780357Y-78354819D02*
X104923214Y-78402438D01*
X104923214Y-78402438D02*
X104970833Y-78450057D01*
X105827976Y-78354819D02*
X105637500Y-78354819D01*
X105637500Y-78354819D02*
X105542262Y-78402438D01*
X105542262Y-78402438D02*
X105494643Y-78450057D01*
X105494643Y-78450057D02*
X105399405Y-78592914D01*
X105399405Y-78592914D02*
X105351786Y-78783390D01*
X105351786Y-78783390D02*
X105351786Y-79164342D01*
X105351786Y-79164342D02*
X105399405Y-79259580D01*
X105399405Y-79259580D02*
X105447024Y-79307200D01*
X105447024Y-79307200D02*
X105542262Y-79354819D01*
X105542262Y-79354819D02*
X105732738Y-79354819D01*
X105732738Y-79354819D02*
X105827976Y-79307200D01*
X105827976Y-79307200D02*
X105875595Y-79259580D01*
X105875595Y-79259580D02*
X105923214Y-79164342D01*
X105923214Y-79164342D02*
X105923214Y-78926247D01*
X105923214Y-78926247D02*
X105875595Y-78831009D01*
X105875595Y-78831009D02*
X105827976Y-78783390D01*
X105827976Y-78783390D02*
X105732738Y-78735771D01*
X105732738Y-78735771D02*
X105542262Y-78735771D01*
X105542262Y-78735771D02*
X105447024Y-78783390D01*
X105447024Y-78783390D02*
X105399405Y-78831009D01*
X105399405Y-78831009D02*
X105351786Y-78926247D01*
X87933333Y-82554819D02*
X87600000Y-82078628D01*
X87361905Y-82554819D02*
X87361905Y-81554819D01*
X87361905Y-81554819D02*
X87742857Y-81554819D01*
X87742857Y-81554819D02*
X87838095Y-81602438D01*
X87838095Y-81602438D02*
X87885714Y-81650057D01*
X87885714Y-81650057D02*
X87933333Y-81745295D01*
X87933333Y-81745295D02*
X87933333Y-81888152D01*
X87933333Y-81888152D02*
X87885714Y-81983390D01*
X87885714Y-81983390D02*
X87838095Y-82031009D01*
X87838095Y-82031009D02*
X87742857Y-82078628D01*
X87742857Y-82078628D02*
X87361905Y-82078628D01*
X88314286Y-81650057D02*
X88361905Y-81602438D01*
X88361905Y-81602438D02*
X88457143Y-81554819D01*
X88457143Y-81554819D02*
X88695238Y-81554819D01*
X88695238Y-81554819D02*
X88790476Y-81602438D01*
X88790476Y-81602438D02*
X88838095Y-81650057D01*
X88838095Y-81650057D02*
X88885714Y-81745295D01*
X88885714Y-81745295D02*
X88885714Y-81840533D01*
X88885714Y-81840533D02*
X88838095Y-81983390D01*
X88838095Y-81983390D02*
X88266667Y-82554819D01*
X88266667Y-82554819D02*
X88885714Y-82554819D01*
X85190476Y-90834819D02*
X84857143Y-90358628D01*
X84619048Y-90834819D02*
X84619048Y-89834819D01*
X84619048Y-89834819D02*
X85000000Y-89834819D01*
X85000000Y-89834819D02*
X85095238Y-89882438D01*
X85095238Y-89882438D02*
X85142857Y-89930057D01*
X85142857Y-89930057D02*
X85190476Y-90025295D01*
X85190476Y-90025295D02*
X85190476Y-90168152D01*
X85190476Y-90168152D02*
X85142857Y-90263390D01*
X85142857Y-90263390D02*
X85095238Y-90311009D01*
X85095238Y-90311009D02*
X85000000Y-90358628D01*
X85000000Y-90358628D02*
X84619048Y-90358628D01*
X85619048Y-90834819D02*
X85619048Y-89834819D01*
X86619047Y-89882438D02*
X86523809Y-89834819D01*
X86523809Y-89834819D02*
X86380952Y-89834819D01*
X86380952Y-89834819D02*
X86238095Y-89882438D01*
X86238095Y-89882438D02*
X86142857Y-89977676D01*
X86142857Y-89977676D02*
X86095238Y-90072914D01*
X86095238Y-90072914D02*
X86047619Y-90263390D01*
X86047619Y-90263390D02*
X86047619Y-90406247D01*
X86047619Y-90406247D02*
X86095238Y-90596723D01*
X86095238Y-90596723D02*
X86142857Y-90691961D01*
X86142857Y-90691961D02*
X86238095Y-90787200D01*
X86238095Y-90787200D02*
X86380952Y-90834819D01*
X86380952Y-90834819D02*
X86476190Y-90834819D01*
X86476190Y-90834819D02*
X86619047Y-90787200D01*
X86619047Y-90787200D02*
X86666666Y-90739580D01*
X86666666Y-90739580D02*
X86666666Y-90406247D01*
X86666666Y-90406247D02*
X86476190Y-90406247D01*
X87095238Y-90834819D02*
X87095238Y-89834819D01*
X87095238Y-90311009D02*
X87666666Y-90311009D01*
X87666666Y-90834819D02*
X87666666Y-89834819D01*
X88000000Y-89834819D02*
X88571428Y-89834819D01*
X88285714Y-90834819D02*
X88285714Y-89834819D01*
X89428571Y-90834819D02*
X88857143Y-90834819D01*
X89142857Y-90834819D02*
X89142857Y-89834819D01*
X89142857Y-89834819D02*
X89047619Y-89977676D01*
X89047619Y-89977676D02*
X88952381Y-90072914D01*
X88952381Y-90072914D02*
X88857143Y-90120533D01*
X87933333Y-74854819D02*
X87600000Y-74378628D01*
X87361905Y-74854819D02*
X87361905Y-73854819D01*
X87361905Y-73854819D02*
X87742857Y-73854819D01*
X87742857Y-73854819D02*
X87838095Y-73902438D01*
X87838095Y-73902438D02*
X87885714Y-73950057D01*
X87885714Y-73950057D02*
X87933333Y-74045295D01*
X87933333Y-74045295D02*
X87933333Y-74188152D01*
X87933333Y-74188152D02*
X87885714Y-74283390D01*
X87885714Y-74283390D02*
X87838095Y-74331009D01*
X87838095Y-74331009D02*
X87742857Y-74378628D01*
X87742857Y-74378628D02*
X87361905Y-74378628D01*
X88790476Y-74188152D02*
X88790476Y-74854819D01*
X88552381Y-73807200D02*
X88314286Y-74521485D01*
X88314286Y-74521485D02*
X88933333Y-74521485D01*
X104970833Y-86439580D02*
X104923214Y-86487200D01*
X104923214Y-86487200D02*
X104780357Y-86534819D01*
X104780357Y-86534819D02*
X104685119Y-86534819D01*
X104685119Y-86534819D02*
X104542262Y-86487200D01*
X104542262Y-86487200D02*
X104447024Y-86391961D01*
X104447024Y-86391961D02*
X104399405Y-86296723D01*
X104399405Y-86296723D02*
X104351786Y-86106247D01*
X104351786Y-86106247D02*
X104351786Y-85963390D01*
X104351786Y-85963390D02*
X104399405Y-85772914D01*
X104399405Y-85772914D02*
X104447024Y-85677676D01*
X104447024Y-85677676D02*
X104542262Y-85582438D01*
X104542262Y-85582438D02*
X104685119Y-85534819D01*
X104685119Y-85534819D02*
X104780357Y-85534819D01*
X104780357Y-85534819D02*
X104923214Y-85582438D01*
X104923214Y-85582438D02*
X104970833Y-85630057D01*
X105923214Y-86534819D02*
X105351786Y-86534819D01*
X105637500Y-86534819D02*
X105637500Y-85534819D01*
X105637500Y-85534819D02*
X105542262Y-85677676D01*
X105542262Y-85677676D02*
X105447024Y-85772914D01*
X105447024Y-85772914D02*
X105351786Y-85820533D01*
X87933333Y-78354819D02*
X87600000Y-77878628D01*
X87361905Y-78354819D02*
X87361905Y-77354819D01*
X87361905Y-77354819D02*
X87742857Y-77354819D01*
X87742857Y-77354819D02*
X87838095Y-77402438D01*
X87838095Y-77402438D02*
X87885714Y-77450057D01*
X87885714Y-77450057D02*
X87933333Y-77545295D01*
X87933333Y-77545295D02*
X87933333Y-77688152D01*
X87933333Y-77688152D02*
X87885714Y-77783390D01*
X87885714Y-77783390D02*
X87838095Y-77831009D01*
X87838095Y-77831009D02*
X87742857Y-77878628D01*
X87742857Y-77878628D02*
X87361905Y-77878628D01*
X88266667Y-77354819D02*
X88885714Y-77354819D01*
X88885714Y-77354819D02*
X88552381Y-77735771D01*
X88552381Y-77735771D02*
X88695238Y-77735771D01*
X88695238Y-77735771D02*
X88790476Y-77783390D01*
X88790476Y-77783390D02*
X88838095Y-77831009D01*
X88838095Y-77831009D02*
X88885714Y-77926247D01*
X88885714Y-77926247D02*
X88885714Y-78164342D01*
X88885714Y-78164342D02*
X88838095Y-78259580D01*
X88838095Y-78259580D02*
X88790476Y-78307200D01*
X88790476Y-78307200D02*
X88695238Y-78354819D01*
X88695238Y-78354819D02*
X88409524Y-78354819D01*
X88409524Y-78354819D02*
X88314286Y-78307200D01*
X88314286Y-78307200D02*
X88266667Y-78259580D01*
X98901010Y-66859580D02*
X98853391Y-66907200D01*
X98853391Y-66907200D02*
X98710534Y-66954819D01*
X98710534Y-66954819D02*
X98615296Y-66954819D01*
X98615296Y-66954819D02*
X98472439Y-66907200D01*
X98472439Y-66907200D02*
X98377201Y-66811961D01*
X98377201Y-66811961D02*
X98329582Y-66716723D01*
X98329582Y-66716723D02*
X98281963Y-66526247D01*
X98281963Y-66526247D02*
X98281963Y-66383390D01*
X98281963Y-66383390D02*
X98329582Y-66192914D01*
X98329582Y-66192914D02*
X98377201Y-66097676D01*
X98377201Y-66097676D02*
X98472439Y-66002438D01*
X98472439Y-66002438D02*
X98615296Y-65954819D01*
X98615296Y-65954819D02*
X98710534Y-65954819D01*
X98710534Y-65954819D02*
X98853391Y-66002438D01*
X98853391Y-66002438D02*
X98901010Y-66050057D01*
X99281963Y-66050057D02*
X99329582Y-66002438D01*
X99329582Y-66002438D02*
X99424820Y-65954819D01*
X99424820Y-65954819D02*
X99662915Y-65954819D01*
X99662915Y-65954819D02*
X99758153Y-66002438D01*
X99758153Y-66002438D02*
X99805772Y-66050057D01*
X99805772Y-66050057D02*
X99853391Y-66145295D01*
X99853391Y-66145295D02*
X99853391Y-66240533D01*
X99853391Y-66240533D02*
X99805772Y-66383390D01*
X99805772Y-66383390D02*
X99234344Y-66954819D01*
X99234344Y-66954819D02*
X99853391Y-66954819D01*
D13*
X95560237Y-80029318D02*
X95560237Y-78759318D01*
X96890714Y-79908365D02*
X96830238Y-79968842D01*
X96830238Y-79968842D02*
X96648809Y-80029318D01*
X96648809Y-80029318D02*
X96527857Y-80029318D01*
X96527857Y-80029318D02*
X96346428Y-79968842D01*
X96346428Y-79968842D02*
X96225476Y-79847889D01*
X96225476Y-79847889D02*
X96164999Y-79726937D01*
X96164999Y-79726937D02*
X96104523Y-79485032D01*
X96104523Y-79485032D02*
X96104523Y-79303603D01*
X96104523Y-79303603D02*
X96164999Y-79061699D01*
X96164999Y-79061699D02*
X96225476Y-78940746D01*
X96225476Y-78940746D02*
X96346428Y-78819794D01*
X96346428Y-78819794D02*
X96527857Y-78759318D01*
X96527857Y-78759318D02*
X96648809Y-78759318D01*
X96648809Y-78759318D02*
X96830238Y-78819794D01*
X96830238Y-78819794D02*
X96890714Y-78880270D01*
X98100238Y-80029318D02*
X97374523Y-80029318D01*
X97737380Y-80029318D02*
X97737380Y-78759318D01*
X97737380Y-78759318D02*
X97616428Y-78940746D01*
X97616428Y-78940746D02*
X97495476Y-79061699D01*
X97495476Y-79061699D02*
X97374523Y-79122175D01*
D10*
X104970833Y-75939580D02*
X104923214Y-75987200D01*
X104923214Y-75987200D02*
X104780357Y-76034819D01*
X104780357Y-76034819D02*
X104685119Y-76034819D01*
X104685119Y-76034819D02*
X104542262Y-75987200D01*
X104542262Y-75987200D02*
X104447024Y-75891961D01*
X104447024Y-75891961D02*
X104399405Y-75796723D01*
X104399405Y-75796723D02*
X104351786Y-75606247D01*
X104351786Y-75606247D02*
X104351786Y-75463390D01*
X104351786Y-75463390D02*
X104399405Y-75272914D01*
X104399405Y-75272914D02*
X104447024Y-75177676D01*
X104447024Y-75177676D02*
X104542262Y-75082438D01*
X104542262Y-75082438D02*
X104685119Y-75034819D01*
X104685119Y-75034819D02*
X104780357Y-75034819D01*
X104780357Y-75034819D02*
X104923214Y-75082438D01*
X104923214Y-75082438D02*
X104970833Y-75130057D01*
X105304167Y-75034819D02*
X105970833Y-75034819D01*
X105970833Y-75034819D02*
X105542262Y-76034819D01*
X103071428Y-90834819D02*
X102595238Y-90834819D01*
X102595238Y-90834819D02*
X102595238Y-89834819D01*
X103404762Y-90311009D02*
X103738095Y-90311009D01*
X103880952Y-90834819D02*
X103404762Y-90834819D01*
X103404762Y-90834819D02*
X103404762Y-89834819D01*
X103404762Y-89834819D02*
X103880952Y-89834819D01*
X104642857Y-90311009D02*
X104309524Y-90311009D01*
X104309524Y-90834819D02*
X104309524Y-89834819D01*
X104309524Y-89834819D02*
X104785714Y-89834819D01*
X105023810Y-89834819D02*
X105595238Y-89834819D01*
X105309524Y-90834819D02*
X105309524Y-89834819D01*
X106452381Y-90834819D02*
X105880953Y-90834819D01*
X106166667Y-90834819D02*
X106166667Y-89834819D01*
X106166667Y-89834819D02*
X106071429Y-89977676D01*
X106071429Y-89977676D02*
X105976191Y-90072914D01*
X105976191Y-90072914D02*
X105880953Y-90120533D01*
%TO.C,U1*%
D14*
X45302500Y-52160000D02*
G75*
G02*
X45102500Y-52160000I-100000J0D01*
G01*
X45102500Y-52160000D02*
G75*
G02*
X45302500Y-52160000I100000J0D01*
G01*
D15*
X73722500Y-99230000D02*
X73722500Y-51030000D01*
X73722500Y-51030000D02*
X68772500Y-51030000D01*
X68772500Y-44830000D02*
X68772500Y-51030000D01*
X63832500Y-100130000D02*
X63832500Y-99230000D01*
X63832500Y-99230000D02*
X73722500Y-99230000D01*
X55702500Y-100130000D02*
X63832500Y-100130000D01*
X55702500Y-99230000D02*
X55702500Y-100130000D01*
X50772500Y-51030000D02*
X50772500Y-44830000D01*
X50772500Y-51030000D02*
X45822500Y-51030000D01*
X50772500Y-44830000D02*
X68772500Y-44830000D01*
X45822500Y-99230000D02*
X55702500Y-99230000D01*
X45822500Y-51030000D02*
X45822500Y-99230000D01*
%TO.C,J3*%
D16*
X77880000Y-49250000D02*
X77880000Y-95080000D01*
X75120000Y-95080000D02*
X77880000Y-95080000D01*
X75120000Y-49250000D02*
X77880000Y-49250000D01*
X75120000Y-49250000D02*
X75120000Y-95080000D01*
X75120000Y-47980000D02*
X75120000Y-46600000D01*
X75120000Y-46600000D02*
X76500000Y-46600000D01*
%TO.C,J2*%
X41620000Y-46625000D02*
X43000000Y-46625000D01*
X41620000Y-48005000D02*
X41620000Y-46625000D01*
X41620000Y-49275000D02*
X41620000Y-95105000D01*
X41620000Y-49275000D02*
X44380000Y-49275000D01*
X41620000Y-95105000D02*
X44380000Y-95105000D01*
X44380000Y-49275000D02*
X44380000Y-95105000D01*
%TO.C,UVD1*%
X107860000Y-49850000D02*
X107860000Y-60070000D01*
X103240000Y-49850000D02*
X107860000Y-49850000D01*
X103240000Y-53110000D02*
X104620000Y-53110000D01*
X103240000Y-56810000D02*
X104620000Y-56810000D01*
X107860000Y-60070000D02*
X103240000Y-60070000D01*
X104620000Y-60070000D02*
X104620000Y-49850000D01*
X103240000Y-60070000D02*
X103240000Y-49850000D01*
%TO.C,J1*%
X77770000Y-99380000D02*
X75120000Y-99380000D01*
X75120000Y-96620000D02*
X75120000Y-99380000D01*
X77770000Y-96620000D02*
X77770000Y-99380000D01*
X77770000Y-96620000D02*
X75120000Y-96620000D01*
X79040000Y-96620000D02*
X80420000Y-96620000D01*
X80420000Y-96620000D02*
X80420000Y-98000000D01*
%TO.C,R1*%
X89327064Y-83665000D02*
X88872936Y-83665000D01*
X89327064Y-85135000D02*
X88872936Y-85135000D01*
%TO.C,C3*%
X105398752Y-80165000D02*
X104876248Y-80165000D01*
X105398752Y-81635000D02*
X104876248Y-81635000D01*
%TO.C,C4*%
X89361252Y-68665000D02*
X88838748Y-68665000D01*
X89361252Y-70135000D02*
X88838748Y-70135000D01*
%TO.C,C6*%
X104876248Y-76640000D02*
X105398752Y-76640000D01*
X104876248Y-78110000D02*
X105398752Y-78110000D01*
%TO.C,R2*%
X89327064Y-79615000D02*
X88872936Y-79615000D01*
X89327064Y-81085000D02*
X88872936Y-81085000D01*
%TO.C,RIGHT1*%
X82630000Y-91380000D02*
X93370000Y-91380000D01*
X82630000Y-95000000D02*
X83870000Y-95000000D01*
X82630000Y-96000000D02*
X83870000Y-96000000D01*
X82630000Y-97300000D02*
X83870000Y-97300000D01*
X82630000Y-99420000D02*
X82630000Y-91380000D01*
X85450000Y-99420000D02*
X82630000Y-99420000D01*
X87630000Y-95000000D02*
X88938000Y-95000000D01*
X87630000Y-96000000D02*
X88938000Y-96000000D01*
X87630000Y-97300000D02*
X90207000Y-97300000D01*
X91293000Y-97300000D02*
X93370000Y-97300000D01*
X92562000Y-95000000D02*
X93370000Y-95000000D01*
X92562000Y-96000000D02*
X93370000Y-96000000D01*
X93370000Y-91380000D02*
X93370000Y-99420000D01*
X93370000Y-99420000D02*
X86050000Y-99420000D01*
X85750000Y-99420000D02*
X86190000Y-100030000D01*
X85310000Y-100030000D01*
X85750000Y-99420000D01*
G36*
X86190000Y-100030000D02*
G01*
X85310000Y-100030000D01*
X85750000Y-99420000D01*
X86190000Y-100030000D01*
G37*
%TO.C,R4*%
X89327064Y-72165000D02*
X88872936Y-72165000D01*
X89327064Y-73635000D02*
X88872936Y-73635000D01*
%TO.C,C1*%
X105398752Y-83665000D02*
X104876248Y-83665000D01*
X105398752Y-85135000D02*
X104876248Y-85135000D01*
%TO.C,R3*%
X88872936Y-75665000D02*
X89327064Y-75665000D01*
X88872936Y-77135000D02*
X89327064Y-77135000D01*
%TO.C,C2*%
X92487677Y-69099000D02*
X92487677Y-67901000D01*
X92527677Y-69362000D02*
X92527677Y-67638000D01*
X92567677Y-69562000D02*
X92567677Y-67438000D01*
X92607677Y-69730000D02*
X92607677Y-67270000D01*
X92647677Y-69877000D02*
X92647677Y-67123000D01*
X92687677Y-70009000D02*
X92687677Y-66991000D01*
X92727677Y-70130000D02*
X92727677Y-66870000D01*
X92767677Y-70242000D02*
X92767677Y-66758000D01*
X92807677Y-70346000D02*
X92807677Y-66654000D01*
X92847677Y-70444000D02*
X92847677Y-66556000D01*
X92887677Y-70537000D02*
X92887677Y-66463000D01*
X92927677Y-70624000D02*
X92927677Y-66376000D01*
X92967677Y-70708000D02*
X92967677Y-66292000D01*
X93007677Y-70788000D02*
X93007677Y-66212000D01*
X93047677Y-70865000D02*
X93047677Y-66135000D01*
X93087677Y-70939000D02*
X93087677Y-66061000D01*
X93127677Y-71010000D02*
X93127677Y-65990000D01*
X93167677Y-71078000D02*
X93167677Y-65922000D01*
X93207677Y-71144000D02*
X93207677Y-65856000D01*
X93247677Y-71208000D02*
X93247677Y-65792000D01*
X93287677Y-71270000D02*
X93287677Y-65730000D01*
X93327677Y-71330000D02*
X93327677Y-65670000D01*
X93367677Y-71388000D02*
X93367677Y-65612000D01*
X93407677Y-71445000D02*
X93407677Y-65555000D01*
X93447677Y-71500000D02*
X93447677Y-65500000D01*
X93487677Y-71553000D02*
X93487677Y-65447000D01*
X93527677Y-71605000D02*
X93527677Y-65395000D01*
X93567677Y-71656000D02*
X93567677Y-65344000D01*
X93607677Y-71705000D02*
X93607677Y-65295000D01*
X93647677Y-71754000D02*
X93647677Y-65246000D01*
X93687677Y-71801000D02*
X93687677Y-65199000D01*
X93727677Y-71847000D02*
X93727677Y-65153000D01*
X93767677Y-71891000D02*
X93767677Y-65109000D01*
X93807677Y-71935000D02*
X93807677Y-65065000D01*
X93847677Y-67260000D02*
X93847677Y-65022000D01*
X93847677Y-71978000D02*
X93847677Y-69740000D01*
X93887677Y-67260000D02*
X93887677Y-64980000D01*
X93887677Y-72020000D02*
X93887677Y-69740000D01*
X93927677Y-67260000D02*
X93927677Y-64939000D01*
X93927677Y-72061000D02*
X93927677Y-69740000D01*
X93967677Y-67260000D02*
X93967677Y-64899000D01*
X93967677Y-72101000D02*
X93967677Y-69740000D01*
X94007677Y-67260000D02*
X94007677Y-64860000D01*
X94007677Y-72140000D02*
X94007677Y-69740000D01*
X94047677Y-67260000D02*
X94047677Y-64822000D01*
X94047677Y-72178000D02*
X94047677Y-69740000D01*
X94087677Y-67260000D02*
X94087677Y-64784000D01*
X94087677Y-72216000D02*
X94087677Y-69740000D01*
X94127677Y-67260000D02*
X94127677Y-64748000D01*
X94127677Y-72252000D02*
X94127677Y-69740000D01*
X94167677Y-67260000D02*
X94167677Y-64712000D01*
X94167677Y-72288000D02*
X94167677Y-69740000D01*
X94207677Y-67260000D02*
X94207677Y-64677000D01*
X94207677Y-72323000D02*
X94207677Y-69740000D01*
X94247677Y-67260000D02*
X94247677Y-64642000D01*
X94247677Y-72358000D02*
X94247677Y-69740000D01*
X94287677Y-67260000D02*
X94287677Y-64609000D01*
X94287677Y-72391000D02*
X94287677Y-69740000D01*
X94327677Y-67260000D02*
X94327677Y-64576000D01*
X94327677Y-72424000D02*
X94327677Y-69740000D01*
X94367677Y-67260000D02*
X94367677Y-64543000D01*
X94367677Y-72457000D02*
X94367677Y-69740000D01*
X94407677Y-67260000D02*
X94407677Y-64512000D01*
X94407677Y-72488000D02*
X94407677Y-69740000D01*
X94447677Y-67260000D02*
X94447677Y-64480000D01*
X94447677Y-72520000D02*
X94447677Y-69740000D01*
X94487677Y-67260000D02*
X94487677Y-64450000D01*
X94487677Y-72550000D02*
X94487677Y-69740000D01*
X94527677Y-67260000D02*
X94527677Y-64420000D01*
X94527677Y-72580000D02*
X94527677Y-69740000D01*
X94567677Y-67260000D02*
X94567677Y-64391000D01*
X94567677Y-72609000D02*
X94567677Y-69740000D01*
X94607677Y-67260000D02*
X94607677Y-64362000D01*
X94607677Y-72638000D02*
X94607677Y-69740000D01*
X94647677Y-67260000D02*
X94647677Y-64334000D01*
X94647677Y-72666000D02*
X94647677Y-69740000D01*
X94687677Y-67260000D02*
X94687677Y-64307000D01*
X94687677Y-72693000D02*
X94687677Y-69740000D01*
X94727677Y-67260000D02*
X94727677Y-64280000D01*
X94727677Y-72720000D02*
X94727677Y-69740000D01*
X94767677Y-67260000D02*
X94767677Y-64253000D01*
X94767677Y-72747000D02*
X94767677Y-69740000D01*
X94807677Y-67260000D02*
X94807677Y-64228000D01*
X94807677Y-72772000D02*
X94807677Y-69740000D01*
X94847677Y-67260000D02*
X94847677Y-64202000D01*
X94847677Y-72798000D02*
X94847677Y-69740000D01*
X94887677Y-67260000D02*
X94887677Y-64177000D01*
X94887677Y-72823000D02*
X94887677Y-69740000D01*
X94927677Y-67260000D02*
X94927677Y-64153000D01*
X94927677Y-72847000D02*
X94927677Y-69740000D01*
X94967677Y-67260000D02*
X94967677Y-64129000D01*
X94967677Y-72871000D02*
X94967677Y-69740000D01*
X95007677Y-67260000D02*
X95007677Y-64106000D01*
X95007677Y-72894000D02*
X95007677Y-69740000D01*
X95047677Y-67260000D02*
X95047677Y-64083000D01*
X95047677Y-72917000D02*
X95047677Y-69740000D01*
X95087677Y-67260000D02*
X95087677Y-64061000D01*
X95087677Y-72939000D02*
X95087677Y-69740000D01*
X95127677Y-67260000D02*
X95127677Y-64039000D01*
X95127677Y-72961000D02*
X95127677Y-69740000D01*
X95167677Y-67260000D02*
X95167677Y-64017000D01*
X95167677Y-72983000D02*
X95167677Y-69740000D01*
X95207677Y-67260000D02*
X95207677Y-63996000D01*
X95207677Y-73004000D02*
X95207677Y-69740000D01*
X95247677Y-67260000D02*
X95247677Y-63976000D01*
X95247677Y-73024000D02*
X95247677Y-69740000D01*
X95287677Y-67260000D02*
X95287677Y-63956000D01*
X95287677Y-73044000D02*
X95287677Y-69740000D01*
X95327677Y-67260000D02*
X95327677Y-63936000D01*
X95327677Y-73064000D02*
X95327677Y-69740000D01*
X95367677Y-67260000D02*
X95367677Y-63917000D01*
X95367677Y-73083000D02*
X95367677Y-69740000D01*
X95407677Y-67260000D02*
X95407677Y-63898000D01*
X95407677Y-73102000D02*
X95407677Y-69740000D01*
X95447677Y-67260000D02*
X95447677Y-63880000D01*
X95447677Y-73120000D02*
X95447677Y-69740000D01*
X95487677Y-67260000D02*
X95487677Y-63862000D01*
X95487677Y-73138000D02*
X95487677Y-69740000D01*
X95527677Y-67260000D02*
X95527677Y-63844000D01*
X95527677Y-73156000D02*
X95527677Y-69740000D01*
X95567677Y-67260000D02*
X95567677Y-63827000D01*
X95567677Y-73173000D02*
X95567677Y-69740000D01*
X95607677Y-67260000D02*
X95607677Y-63810000D01*
X95607677Y-73190000D02*
X95607677Y-69740000D01*
X95647677Y-67260000D02*
X95647677Y-63794000D01*
X95647677Y-73206000D02*
X95647677Y-69740000D01*
X95687677Y-67260000D02*
X95687677Y-63778000D01*
X95687677Y-73222000D02*
X95687677Y-69740000D01*
X95727677Y-67260000D02*
X95727677Y-63762000D01*
X95727677Y-73238000D02*
X95727677Y-69740000D01*
X95767677Y-67260000D02*
X95767677Y-63747000D01*
X95767677Y-73253000D02*
X95767677Y-69740000D01*
X95807677Y-67260000D02*
X95807677Y-63732000D01*
X95807677Y-73268000D02*
X95807677Y-69740000D01*
X95847677Y-67260000D02*
X95847677Y-63718000D01*
X95847677Y-73282000D02*
X95847677Y-69740000D01*
X95887677Y-67260000D02*
X95887677Y-63703000D01*
X95887677Y-73297000D02*
X95887677Y-69740000D01*
X95927677Y-67260000D02*
X95927677Y-63690000D01*
X95927677Y-73310000D02*
X95927677Y-69740000D01*
X95967677Y-67260000D02*
X95967677Y-63676000D01*
X95967677Y-73324000D02*
X95967677Y-69740000D01*
X96007677Y-67260000D02*
X96007677Y-63663000D01*
X96007677Y-73337000D02*
X96007677Y-69740000D01*
X96047677Y-67260000D02*
X96047677Y-63651000D01*
X96047677Y-73349000D02*
X96047677Y-69740000D01*
X96087677Y-67260000D02*
X96087677Y-63639000D01*
X96087677Y-73361000D02*
X96087677Y-69740000D01*
X96127677Y-67260000D02*
X96127677Y-63627000D01*
X96127677Y-73373000D02*
X96127677Y-69740000D01*
X96167677Y-67260000D02*
X96167677Y-63615000D01*
X96167677Y-73385000D02*
X96167677Y-69740000D01*
X96207677Y-67260000D02*
X96207677Y-63604000D01*
X96207677Y-73396000D02*
X96207677Y-69740000D01*
X96247677Y-67260000D02*
X96247677Y-63593000D01*
X96247677Y-73407000D02*
X96247677Y-69740000D01*
X96287677Y-67260000D02*
X96287677Y-63583000D01*
X96287677Y-73417000D02*
X96287677Y-69740000D01*
X96327677Y-73428000D02*
X96327677Y-63572000D01*
X96367677Y-73437000D02*
X96367677Y-63563000D01*
X96407677Y-73447000D02*
X96407677Y-63553000D01*
X96447677Y-73456000D02*
X96447677Y-63544000D01*
X96487677Y-73465000D02*
X96487677Y-63535000D01*
X96527677Y-73473000D02*
X96527677Y-63527000D01*
X96567677Y-73481000D02*
X96567677Y-63519000D01*
X96607677Y-73489000D02*
X96607677Y-63511000D01*
X96647677Y-73497000D02*
X96647677Y-63503000D01*
X96687677Y-73504000D02*
X96687677Y-63496000D01*
X96727677Y-73511000D02*
X96727677Y-63489000D01*
X96767677Y-73517000D02*
X96767677Y-63483000D01*
X96807677Y-73523000D02*
X96807677Y-63477000D01*
X96847677Y-73529000D02*
X96847677Y-63471000D01*
X96887677Y-73535000D02*
X96887677Y-63465000D01*
X96927677Y-73540000D02*
X96927677Y-63460000D01*
X96967677Y-73545000D02*
X96967677Y-63455000D01*
X97007677Y-73549000D02*
X97007677Y-63451000D01*
X97047677Y-73554000D02*
X97047677Y-63446000D01*
X97087677Y-73557000D02*
X97087677Y-63443000D01*
X97127677Y-73561000D02*
X97127677Y-63439000D01*
X97167677Y-73564000D02*
X97167677Y-63436000D01*
X97207677Y-73567000D02*
X97207677Y-63433000D01*
X97247677Y-73570000D02*
X97247677Y-63430000D01*
X97287677Y-73572000D02*
X97287677Y-63428000D01*
X97327677Y-73574000D02*
X97327677Y-63426000D01*
X97367677Y-73576000D02*
X97367677Y-63424000D01*
X97407677Y-73577000D02*
X97407677Y-63423000D01*
X97447677Y-73579000D02*
X97447677Y-63421000D01*
X97487677Y-73579000D02*
X97487677Y-63421000D01*
X97527677Y-73580000D02*
X97527677Y-63420000D01*
X97567677Y-73580000D02*
X97567677Y-63420000D01*
X102547323Y-71875000D02*
X102547323Y-70875000D01*
X103047323Y-71375000D02*
X102047323Y-71375000D01*
X102687677Y-68500000D02*
G75*
G02*
X92447677Y-68500000I-5120000J0D01*
G01*
X92447677Y-68500000D02*
G75*
G02*
X102687677Y-68500000I5120000J0D01*
G01*
%TO.C,IC1*%
D14*
X95200000Y-74505000D02*
X98400000Y-74505000D01*
X95200000Y-84405000D02*
X95200000Y-74505000D01*
X98400000Y-74505000D02*
X98400000Y-84405000D01*
X98400000Y-84405000D02*
X95200000Y-84405000D01*
X100250000Y-84575000D02*
X98750000Y-84575000D01*
%TO.C,C7*%
D16*
X105398752Y-73165000D02*
X104876248Y-73165000D01*
X105398752Y-74635000D02*
X104876248Y-74635000D01*
%TO.C,LEFT1*%
X97580000Y-91380000D02*
X108320000Y-91380000D01*
X97580000Y-95000000D02*
X98820000Y-95000000D01*
X97580000Y-96000000D02*
X98820000Y-96000000D01*
X97580000Y-97300000D02*
X98820000Y-97300000D01*
X97580000Y-99420000D02*
X97580000Y-91380000D01*
X100400000Y-99420000D02*
X97580000Y-99420000D01*
X102580000Y-95000000D02*
X103888000Y-95000000D01*
X102580000Y-96000000D02*
X103888000Y-96000000D01*
X102580000Y-97300000D02*
X105157000Y-97300000D01*
X106243000Y-97300000D02*
X108320000Y-97300000D01*
X107512000Y-95000000D02*
X108320000Y-95000000D01*
X107512000Y-96000000D02*
X108320000Y-96000000D01*
X108320000Y-91380000D02*
X108320000Y-99420000D01*
X108320000Y-99420000D02*
X101000000Y-99420000D01*
X100700000Y-99420000D02*
X101140000Y-100030000D01*
X100260000Y-100030000D01*
X100700000Y-99420000D01*
G36*
X101140000Y-100030000D02*
G01*
X100260000Y-100030000D01*
X100700000Y-99420000D01*
X101140000Y-100030000D01*
G37*
%TO.C,U3*%
X96700000Y-38960000D02*
X98080000Y-38960000D01*
X96700000Y-40340000D02*
X96700000Y-38960000D01*
X96700000Y-41610000D02*
X96700000Y-62040000D01*
X96700000Y-41610000D02*
X99460000Y-41610000D01*
X96700000Y-62040000D02*
X99460000Y-62040000D01*
X99460000Y-41610000D02*
X99460000Y-62040000D01*
%TD*%
M02*
