%TF.GenerationSoftware,KiCad,Pcbnew,10.0.4*%
%TF.CreationDate,2026-07-02T12:56:17+12:00*%
%TF.ProjectId,DESIGN,44455349-474e-42e6-9b69-6361645f7063,rev?*%
%TF.SameCoordinates,Original*%
%TF.FileFunction,Soldermask,Top*%
%TF.FilePolarity,Negative*%
%FSLAX46Y46*%
G04 Gerber Fmt 4.6, Leading zero omitted, Abs format (unit mm)*
G04 Created by KiCad (PCBNEW 10.0.4) date 2026-07-02 12:56:17*
%MOMM*%
%LPD*%
G01*
G04 APERTURE LIST*
G04 Aperture macros list*
%AMRoundRect*
0 Rectangle with rounded corners*
0 $1 Rounding radius*
0 $2 $3 $4 $5 $6 $7 $8 $9 X,Y pos of 4 corners*
0 Add a 4 corners polygon primitive as box body*
4,1,4,$2,$3,$4,$5,$6,$7,$8,$9,$2,$3,0*
0 Add four circle primitives for the rounded corners*
1,1,$1+$1,$2,$3*
1,1,$1+$1,$4,$5*
1,1,$1+$1,$6,$7*
1,1,$1+$1,$8,$9*
0 Add four rect primitives between the rounded corners*
20,1,$1+$1,$2,$3,$4,$5,0*
20,1,$1+$1,$4,$5,$6,$7,0*
20,1,$1+$1,$6,$7,$8,$9,0*
20,1,$1+$1,$8,$9,$2,$3,0*%
%AMOutline5P*
0 Free polygon, 5 corners , with rotation*
0 The origin of the aperture is its center*
0 number of corners: always 5*
0 $1 to $10 corner X, Y*
0 $11 Rotation angle, in degrees counterclockwise*
0 create outline with 5 corners*
4,1,5,$1,$2,$3,$4,$5,$6,$7,$8,$9,$10,$1,$2,$11*%
%AMOutline6P*
0 Free polygon, 6 corners , with rotation*
0 The origin of the aperture is its center*
0 number of corners: always 6*
0 $1 to $12 corner X, Y*
0 $13 Rotation angle, in degrees counterclockwise*
0 create outline with 6 corners*
4,1,6,$1,$2,$3,$4,$5,$6,$7,$8,$9,$10,$11,$12,$1,$2,$13*%
%AMOutline7P*
0 Free polygon, 7 corners , with rotation*
0 The origin of the aperture is its center*
0 number of corners: always 7*
0 $1 to $14 corner X, Y*
0 $15 Rotation angle, in degrees counterclockwise*
0 create outline with 7 corners*
4,1,7,$1,$2,$3,$4,$5,$6,$7,$8,$9,$10,$11,$12,$13,$14,$1,$2,$15*%
%AMOutline8P*
0 Free polygon, 8 corners , with rotation*
0 The origin of the aperture is its center*
0 number of corners: always 8*
0 $1 to $16 corner X, Y*
0 $17 Rotation angle, in degrees counterclockwise*
0 create outline with 8 corners*
4,1,8,$1,$2,$3,$4,$5,$6,$7,$8,$9,$10,$11,$12,$13,$14,$15,$16,$1,$2,$17*%
G04 Aperture macros list end*
%ADD10C,1.734000*%
%ADD11RoundRect,0.102000X-0.765000X-0.765000X0.765000X-0.765000X0.765000X0.765000X-0.765000X0.765000X0*%
%ADD12C,1.700000*%
%ADD13R,1.700000X1.700000*%
%ADD14O,2.000000X1.905000*%
%ADD15R,2.000000X1.905000*%
%ADD16RoundRect,0.750000X-1.750000X-1.750000X1.750000X-1.750000X1.750000X1.750000X-1.750000X1.750000X0*%
%ADD17Outline8P,-2.500000X1.500000X-1.500000X2.500000X1.500000X2.500000X2.500000X1.500000X2.500000X-1.500000X1.500000X-2.500000X-1.500000X-2.500000X-2.500000X-1.500000X0.000000*%
%ADD18RoundRect,0.250000X0.350000X0.450000X-0.350000X0.450000X-0.350000X-0.450000X0.350000X-0.450000X0*%
%ADD19RoundRect,0.250000X0.337500X0.475000X-0.337500X0.475000X-0.337500X-0.475000X0.337500X-0.475000X0*%
%ADD20RoundRect,0.250000X-0.337500X-0.475000X0.337500X-0.475000X0.337500X0.475000X-0.337500X0.475000X0*%
%ADD21RoundRect,0.250001X-1.149999X-1.149999X1.149999X-1.149999X1.149999X1.149999X-1.149999X1.149999X0*%
%ADD22C,2.800000*%
%ADD23RoundRect,0.250000X-0.350000X-0.450000X0.350000X-0.450000X0.350000X0.450000X-0.350000X0.450000X0*%
%ADD24RoundRect,0.250000X0.750000X0.750000X-0.750000X0.750000X-0.750000X-0.750000X0.750000X-0.750000X0*%
%ADD25C,2.000000*%
%ADD26R,1.500000X0.650000*%
G04 APERTURE END LIST*
D10*
%TO.C,U1*%
X72472500Y-52280000D03*
X72472500Y-54820000D03*
X72472500Y-57360000D03*
X72472500Y-59900000D03*
X72472500Y-62440000D03*
X72472500Y-64980000D03*
X72472500Y-67520000D03*
X72472500Y-70060000D03*
X72472500Y-72600000D03*
X72472500Y-75140000D03*
X72472500Y-77680000D03*
X72472500Y-80220000D03*
X72472500Y-82760000D03*
X72472500Y-85300000D03*
X72472500Y-87840000D03*
X72472500Y-90380000D03*
X72472500Y-92920000D03*
X72472500Y-95460000D03*
X72472500Y-98000000D03*
X47072500Y-98000000D03*
X47072500Y-95460000D03*
X47072500Y-92920000D03*
X47072500Y-90380000D03*
X47072500Y-87840000D03*
X47072500Y-85300000D03*
X47072500Y-82760000D03*
X47072500Y-80220000D03*
X47072500Y-77680000D03*
X47072500Y-75140000D03*
X47072500Y-72600000D03*
X47072500Y-70060000D03*
X47072500Y-67520000D03*
X47072500Y-64980000D03*
X47072500Y-62440000D03*
X47072500Y-59900000D03*
X47072500Y-57360000D03*
X47072500Y-54820000D03*
D11*
X47072500Y-52280000D03*
%TD*%
D12*
%TO.C,J3*%
X76500000Y-93700000D03*
X76500000Y-91160000D03*
X76500000Y-88620000D03*
X76500000Y-86080000D03*
X76500000Y-83540000D03*
X76500000Y-81000000D03*
X76500000Y-78460000D03*
X76500000Y-75920000D03*
X76500000Y-73380000D03*
X76500000Y-70840000D03*
X76500000Y-68300000D03*
X76500000Y-65760000D03*
X76500000Y-63220000D03*
X76500000Y-60680000D03*
X76500000Y-58140000D03*
X76500000Y-55600000D03*
X76500000Y-53060000D03*
X76500000Y-50520000D03*
D13*
X76500000Y-47980000D03*
%TD*%
%TO.C,J2*%
X43000000Y-48005000D03*
D12*
X43000000Y-50545000D03*
X43000000Y-53085000D03*
X43000000Y-55625000D03*
X43000000Y-58165000D03*
X43000000Y-60705000D03*
X43000000Y-63245000D03*
X43000000Y-65785000D03*
X43000000Y-68325000D03*
X43000000Y-70865000D03*
X43000000Y-73405000D03*
X43000000Y-75945000D03*
X43000000Y-78485000D03*
X43000000Y-81025000D03*
X43000000Y-83565000D03*
X43000000Y-86105000D03*
X43000000Y-88645000D03*
X43000000Y-91185000D03*
X43000000Y-93725000D03*
%TD*%
D14*
%TO.C,UVD1*%
X106500000Y-52420000D03*
X106500000Y-54960000D03*
D15*
X106500000Y-57500000D03*
%TD*%
D12*
%TO.C,J1*%
X76500000Y-98000000D03*
D13*
X79040000Y-98000000D03*
%TD*%
D16*
%TO.C,J4*%
X109500000Y-40500000D03*
D17*
X109500000Y-31000000D03*
%TD*%
D18*
%TO.C,R1*%
X90100000Y-84400000D03*
X88100000Y-84400000D03*
%TD*%
D19*
%TO.C,C3*%
X106175000Y-80900000D03*
X104100000Y-80900000D03*
%TD*%
%TO.C,C4*%
X90137500Y-69400000D03*
X88062500Y-69400000D03*
%TD*%
D20*
%TO.C,C6*%
X104100000Y-77375000D03*
X106175000Y-77375000D03*
%TD*%
D18*
%TO.C,R2*%
X90100000Y-80350000D03*
X88100000Y-80350000D03*
%TD*%
D21*
%TO.C,RIGHT1*%
X85750000Y-95500000D03*
D22*
X90750000Y-95500000D03*
%TD*%
D18*
%TO.C,R4*%
X90100000Y-72900000D03*
X88100000Y-72900000D03*
%TD*%
D19*
%TO.C,C1*%
X106175000Y-84400000D03*
X104100000Y-84400000D03*
%TD*%
D23*
%TO.C,R3*%
X88100000Y-76400000D03*
X90100000Y-76400000D03*
%TD*%
D24*
%TO.C,C2*%
X100067677Y-68500000D03*
D25*
X95067677Y-68500000D03*
%TD*%
D26*
%TO.C,IC1*%
X99500000Y-83900000D03*
X99500000Y-82630000D03*
X99500000Y-81360000D03*
X99500000Y-80090000D03*
X99500000Y-78820000D03*
X99500000Y-77550000D03*
X99500000Y-76280000D03*
X99500000Y-75010000D03*
X94100000Y-75010000D03*
X94100000Y-76280000D03*
X94100000Y-77550000D03*
X94100000Y-78820000D03*
X94100000Y-80090000D03*
X94100000Y-81360000D03*
X94100000Y-82630000D03*
X94100000Y-83900000D03*
%TD*%
D19*
%TO.C,C7*%
X106175000Y-73900000D03*
X104100000Y-73900000D03*
%TD*%
D21*
%TO.C,LEFT1*%
X100700000Y-95500000D03*
D22*
X105700000Y-95500000D03*
%TD*%
D12*
%TO.C,U3*%
X97620000Y-34340000D03*
X95080000Y-34340000D03*
X92540000Y-34340000D03*
X90000000Y-34340000D03*
X87460000Y-34340000D03*
D13*
X84920000Y-34340000D03*
X98080000Y-40340000D03*
D12*
X98080000Y-42880000D03*
X98080000Y-45420000D03*
X98080000Y-47960000D03*
X98080000Y-50500000D03*
X98080000Y-53040000D03*
X98080000Y-55580000D03*
X98080000Y-58120000D03*
X98080000Y-60660000D03*
%TD*%
M02*
